<svg xmlns="http://www.w3.org/2000/svg" width="24" height="24" viewBox="0 0 24 24">
	<path d="M14,9.4c0-0.9-0.4-1.5-1.1-1.8c-0.4-0.2-0.9-0.3-1.5-0.3c-0.4,0-0.7,0-0.8,0.1c-0.1,0.1-0.1,0.2-0.1,0.4
		v3.7c1.1,0,1.9-0.2,2.3-0.3C13.6,10.9,14,10.3,14,9.4z"/>
	<path d="M12,3c-5,0-9,4-9,9s4,9,9,9s9-4,9-9S17,3,12,3z M17.3,16.7h-2.4l-3.8-4.6l-0.7,0v3c0,0.6,0.1,0.9,0.3,1.1
		c0.2,0.1,0.5,0.2,1.1,0.3v0.3H7.7v-0.3c0.6-0.1,0.9-0.2,1.1-0.3S9,15.5,9,14.9V8.4c0-0.5-0.1-0.9-0.2-1C8.6,7.2,8.2,7.1,7.7,7.1
		V6.8h4.2c0.9,0,1.6,0.1,2.2,0.3c1.1,0.4,1.6,1.2,1.6,2.3c0,0.7-0.2,1.3-0.7,1.7c-0.5,0.4-1.1,0.7-2,0.8l3.1,3.8
		c0.2,0.2,0.4,0.4,0.6,0.5c0.2,0.1,0.4,0.2,0.7,0.2V16.7z"/>
</svg>
